<svg version="1.1" xmlns="http://www.w3.org/2000/svg" x="0" y="0" width="512" height="512" viewBox="0 0 512 512" xml:space="preserve"><path d="M256 32c123.5 0 224 100.5 224 224S379.5 480 256 480 32 379.5 32 256 132.5 32 256 32M256 0C114.6 0 0 114.6 0 256s114.6 256 256 256 256-114.6 256-256S397.4 0 256 0L256 0zM398.7 341.6l-1.4-4.4c-3.4-10.1-14.5-20.6-24.7-23.4L334.7 303.5c-10.2-2.8-24.9 1-32.4 8.5l-13.7 13.7c-49.7-13.5-88.8-52.5-102.2-102.2l13.7-13.7c7.5-7.5 11.3-22.1 8.5-32.4L198.2 139.5c-2.8-10.2-13.3-21.4-23.4-24.7l-4.3-1.4c-10.1-3.4-24.5 0-32 7.6l-20.5 20.5c-3.7 3.6-6 14-6 14.1 -0.7 65.1 24.8 127.7 70.8 173.8 45.9 45.9 108.3 71.3 173.2 70.8 0.3 0 11.1-2.3 14.7-5.9l20.5-20.5C398.7 366.1 402.1 351.7 398.7 341.6z"/></svg>